{"asset":{"version":"2.0","generator":"generate-banana.mjs"},"scene":0,"scenes":[{"nodes":[0]}],"nodes":[{"name":"banana","mesh":0}],"meshes":[{"name":"banana","primitives":[{"attributes":{"POSITION":0,"NORMAL":1},"indices":2,"material":0,"mode":4}]}],"materials":[{"name":"banana","pbrMetallicRoughness":{"baseColorFactor":[0.97,0.8,0.13,1],"metallicFactor":0,"roughnessFactor":0.85},"emissiveFactor":[0.06,0.05,0],"doubleSided":true}],"accessors":[{"bufferView":0,"componentType":5126,"count":232,"type":"VEC3","min":[-0.11507576946193113,0,-0.02092324335849338],"max":[0.11507576946193113,0.10706526092735066,0.02092324335849338]},{"bufferView":1,"componentType":5126,"count":232,"type":"VEC3"},{"bufferView":2,"componentType":5123,"count":1380,"type":"SCALAR"}],"bufferViews":[{"buffer":0,"byteOffset":0,"byteLength":2784,"target":34962},{"buffer":0,"byteOffset":2784,"byteLength":2784,"target":34962},{"buffer":0,"byteOffset":5568,"byteLength":2760,"target":34963}],"buffers":[{"byteLength":8328,"uri":"data:application/octet-stream;base64,"}]}